<svg id="visual" viewBox="0 0 900 600" width="900" height="600" xmlns="http://www.w3.org/2000/svg" xmlns:xlink="http://www.w3.org/1999/xlink" version="1.1"><g stroke-width="1" stroke-linejoin="bevel"><path d="M454 310.9L466 284.1L453 288.1Z" fill="#451214" stroke="#451214"></path><path d="M518 304.3L506 273L466 284.1Z" fill="#791414" stroke="#791414"></path><path d="M454 310.9L518 304.3L466 284.1Z" fill="#3b1113" stroke="#3b1113"></path><path d="M489 346.9L518 304.3L454 310.9Z" fill="#831512" stroke="#831512"></path><path d="M427 246.4L422 257.4L453 288.1Z" fill="#311011" stroke="#311011"></path><path d="M453 288.1L400 314.9L454 310.9Z" fill="#641315" stroke="#641315"></path><path d="M427 246.4L453 288.1L466 284.1Z" fill="#831512" stroke="#831512"></path><path d="M443 223L427 246.4L466 284.1Z" fill="#3b1113" stroke="#3b1113"></path><path d="M422 257.4L400 314.9L453 288.1Z" fill="#3b1113" stroke="#3b1113"></path><path d="M454 310.9L386 362L489 346.9Z" fill="#3b1113" stroke="#3b1113"></path><path d="M499 219.1L443 223L466 284.1Z" fill="#831512" stroke="#831512"></path><path d="M422 257.4L380 300.1L400 314.9Z" fill="#641315" stroke="#641315"></path><path d="M342 258.3L380 300.1L422 257.4Z" fill="#1e0b0b" stroke="#1e0b0b"></path><path d="M419 210.6L422 257.4L427 246.4Z" fill="#3b1113" stroke="#3b1113"></path><path d="M518 304.3L541 259.4L506 273Z" fill="#591215" stroke="#591215"></path><path d="M506 273L499 219.1L466 284.1Z" fill="#791414" stroke="#791414"></path><path d="M541 259.4L499 219.1L506 273Z" fill="#791414" stroke="#791414"></path><path d="M573 198.3L497 211L499 219.1Z" fill="#591215" stroke="#591215"></path><path d="M499 219.1L497 211L443 223Z" fill="#641315" stroke="#641315"></path><path d="M380 300.1L370 320.1L400 314.9Z" fill="#831512" stroke="#831512"></path><path d="M400 314.9L386 362L454 310.9Z" fill="#4f1215" stroke="#4f1215"></path><path d="M488 180.3L419 210.6L443 223Z" fill="#1e0b0b" stroke="#1e0b0b"></path><path d="M443 223L419 210.6L427 246.4Z" fill="#591215" stroke="#591215"></path><path d="M380 300.1L345 320.9L370 320.1Z" fill="#641315" stroke="#641315"></path><path d="M370 320.1L386 362L400 314.9Z" fill="#791414" stroke="#791414"></path><path d="M572 318.7L563 281.9L518 304.3Z" fill="#591215" stroke="#591215"></path><path d="M518 304.3L563 281.9L541 259.4Z" fill="#791414" stroke="#791414"></path><path d="M573 198.3L488 180.3L497 211Z" fill="#791414" stroke="#791414"></path><path d="M557 373.7L572 318.7L518 304.3Z" fill="#451214" stroke="#451214"></path><path d="M337 363.7L387 390.4L386 362Z" fill="#270f0e" stroke="#270f0e"></path><path d="M386 362L387 390.4L489 346.9Z" fill="#4f1215" stroke="#4f1215"></path><path d="M489 346.9L557 373.7L518 304.3Z" fill="#831512" stroke="#831512"></path><path d="M567 399.4L557 373.7L540 425.7Z" fill="#3b1113" stroke="#3b1113"></path><path d="M342 258.3L345 320.9L380 300.1Z" fill="#591215" stroke="#591215"></path><path d="M370 320.1L337 363.7L386 362Z" fill="#591215" stroke="#591215"></path><path d="M573 198.3L499 219.1L541 259.4Z" fill="#6e1315" stroke="#6e1315"></path><path d="M497 211L488 180.3L443 223Z" fill="#451214" stroke="#451214"></path><path d="M488 180.3L406 189.6L419 210.6Z" fill="#1e0b0b" stroke="#1e0b0b"></path><path d="M340 238.3L342 258.3L422 257.4Z" fill="#791414" stroke="#791414"></path><path d="M340 238.3L422 257.4L365 199.6Z" fill="#641315" stroke="#641315"></path><path d="M614 259.1L588 245L563 281.9Z" fill="#791414" stroke="#791414"></path><path d="M563 281.9L588 245L541 259.4Z" fill="#641315" stroke="#641315"></path><path d="M354 431.7L388 413.9L387 390.4Z" fill="#641315" stroke="#641315"></path><path d="M387 390.4L485 449.4L489 346.9Z" fill="#311011" stroke="#311011"></path><path d="M365 199.6L422 257.4L419 210.6Z" fill="#591215" stroke="#591215"></path><path d="M298 364L337 363.7L345 320.9Z" fill="#270f0e" stroke="#270f0e"></path><path d="M406 189.6L365 199.6L419 210.6Z" fill="#1e0b0b" stroke="#1e0b0b"></path><path d="M268 284.1L345 320.9L342 258.3Z" fill="#270f0e" stroke="#270f0e"></path><path d="M345 320.9L337 363.7L370 320.1Z" fill="#3b1113" stroke="#3b1113"></path><path d="M540 425.7L557 373.7L489 346.9Z" fill="#270f0e" stroke="#270f0e"></path><path d="M557 373.7L590 368.7L572 318.7Z" fill="#451214" stroke="#451214"></path><path d="M572 318.7L614 259.1L563 281.9Z" fill="#3b1113" stroke="#3b1113"></path><path d="M588 394L590 368.7L557 373.7Z" fill="#791414" stroke="#791414"></path><path d="M341 208L330 235.4L340 238.3Z" fill="#791414" stroke="#791414"></path><path d="M340 238.3L321 246.9L342 258.3Z" fill="#831512" stroke="#831512"></path><path d="M485 449.4L540 425.7L489 346.9Z" fill="#831512" stroke="#831512"></path><path d="M588 245L573 198.3L541 259.4Z" fill="#270f0e" stroke="#270f0e"></path><path d="M614 259.1L597 230.3L588 245Z" fill="#311011" stroke="#311011"></path><path d="M588 245L597 230.3L573 198.3Z" fill="#311011" stroke="#311011"></path><path d="M330 235.4L321 246.9L340 238.3Z" fill="#270f0e" stroke="#270f0e"></path><path d="M388 413.9L485 449.4L387 390.4Z" fill="#3b1113" stroke="#3b1113"></path><path d="M365 199.6L341 208L340 238.3Z" fill="#311011" stroke="#311011"></path><path d="M330 235.4L289 237.4L321 246.9Z" fill="#311011" stroke="#311011"></path><path d="M636 326.9L614 259.1L572 318.7Z" fill="#641315" stroke="#641315"></path><path d="M567 399.4L588 394L557 373.7Z" fill="#1e0b0b" stroke="#1e0b0b"></path><path d="M590 368.7L636 326.9L572 318.7Z" fill="#791414" stroke="#791414"></path><path d="M626 407.7L588 394L621 428.6Z" fill="#311011" stroke="#311011"></path><path d="M614 259.1L620 236.1L597 230.3Z" fill="#791414" stroke="#791414"></path><path d="M597 230.3L601 201.1L573 198.3Z" fill="#6e1315" stroke="#6e1315"></path><path d="M665 222.3L620 236.1L614 259.1Z" fill="#1e0b0b" stroke="#1e0b0b"></path><path d="M620 236.1L601 201.1L597 230.3Z" fill="#6e1315" stroke="#6e1315"></path><path d="M474 126.6L422 132.6L488 180.3Z" fill="#831512" stroke="#831512"></path><path d="M474 126.6L488 180.3L507 126.4Z" fill="#3b1113" stroke="#3b1113"></path><path d="M488 180.3L422 132.6L406 189.6Z" fill="#831512" stroke="#831512"></path><path d="M406 189.6L404 129.3L365 199.6Z" fill="#3b1113" stroke="#3b1113"></path><path d="M310 109.7L283 144.3L341 208Z" fill="#311011" stroke="#311011"></path><path d="M337 363.7L354 431.7L387 390.4Z" fill="#311011" stroke="#311011"></path><path d="M371 506.1L463 524.6L485 449.4Z" fill="#591215" stroke="#591215"></path><path d="M498 514.1L526 459.6L485 449.4Z" fill="#4f1215" stroke="#4f1215"></path><path d="M485 449.4L526 459.6L540 425.7Z" fill="#591215" stroke="#591215"></path><path d="M591 449.7L588 394L567 399.4Z" fill="#591215" stroke="#591215"></path><path d="M507 126.4L488 180.3L573 198.3Z" fill="#4f1215" stroke="#4f1215"></path><path d="M668 374.4L636 326.9L590 368.7Z" fill="#831512" stroke="#831512"></path><path d="M267 322.7L298 364L345 320.9Z" fill="#791414" stroke="#791414"></path><path d="M337 363.7L324 428.6L354 431.7Z" fill="#791414" stroke="#791414"></path><path d="M601 129.9L507 126.4L573 198.3Z" fill="#270f0e" stroke="#270f0e"></path><path d="M412 54.9L404 129.3L422 132.6Z" fill="#831512" stroke="#831512"></path><path d="M422 132.6L404 129.3L406 189.6Z" fill="#4f1215" stroke="#4f1215"></path><path d="M341 208L289 237.4L330 235.4Z" fill="#3b1113" stroke="#3b1113"></path><path d="M321 246.9L268 284.1L342 258.3Z" fill="#641315" stroke="#641315"></path><path d="M274 228.1L289 237.4L341 208Z" fill="#791414" stroke="#791414"></path><path d="M636 326.9L652 304L614 259.1Z" fill="#270f0e" stroke="#270f0e"></path><path d="M291 386.6L324 428.6L337 363.7Z" fill="#4f1215" stroke="#4f1215"></path><path d="M354 431.7L348 458.7L388 413.9Z" fill="#3b1113" stroke="#3b1113"></path><path d="M277 378.6L291 386.6L298 364Z" fill="#641315" stroke="#641315"></path><path d="M298 364L291 386.6L337 363.7Z" fill="#831512" stroke="#831512"></path><path d="M591 449.7L567 399.4L540 425.7Z" fill="#311011" stroke="#311011"></path><path d="M588 394L626 407.7L590 368.7Z" fill="#3b1113" stroke="#3b1113"></path><path d="M636 326.9L669 309.3L652 304Z" fill="#641315" stroke="#641315"></path><path d="M289 237.4L268 284.1L321 246.9Z" fill="#4f1215" stroke="#4f1215"></path><path d="M324 428.6L348 458.7L354 431.7Z" fill="#451214" stroke="#451214"></path><path d="M526 459.6L591 449.7L540 425.7Z" fill="#591215" stroke="#591215"></path><path d="M622 177.7L612 168.6L601 201.1Z" fill="#270f0e" stroke="#270f0e"></path><path d="M601 201.1L612 168.6L573 198.3Z" fill="#791414" stroke="#791414"></path><path d="M622 177.7L601 201.1L620 236.1Z" fill="#3b1113" stroke="#3b1113"></path><path d="M268 284.1L267 322.7L345 320.9Z" fill="#6e1315" stroke="#6e1315"></path><path d="M665 222.3L622 177.7L620 236.1Z" fill="#270f0e" stroke="#270f0e"></path><path d="M260 196.6L274 228.1L341 208Z" fill="#831512" stroke="#831512"></path><path d="M289 237.4L245 270.4L268 284.1Z" fill="#451214" stroke="#451214"></path><path d="M252 346L277 378.6L298 364Z" fill="#4f1215" stroke="#4f1215"></path><path d="M270 429.3L328 467.1L324 428.6Z" fill="#270f0e" stroke="#270f0e"></path><path d="M324 428.6L328 467.1L348 458.7Z" fill="#6e1315" stroke="#6e1315"></path><path d="M591 449.7L611 438.4L588 394Z" fill="#4f1215" stroke="#4f1215"></path><path d="M618 468.1L598 451.6L592 518.6Z" fill="#791414" stroke="#791414"></path><path d="M591 449.7L598 451.6L611 438.4Z" fill="#4f1215" stroke="#4f1215"></path><path d="M631 427.3L621 428.6L611 438.4Z" fill="#311011" stroke="#311011"></path><path d="M611 438.4L621 428.6L588 394Z" fill="#831512" stroke="#831512"></path><path d="M668 374.4L669 309.3L636 326.9Z" fill="#451214" stroke="#451214"></path><path d="M668 374.4L590 368.7L626 407.7Z" fill="#4f1215" stroke="#4f1215"></path><path d="M652 304L665 222.3L614 259.1Z" fill="#311011" stroke="#311011"></path><path d="M268 284.1L258 328.7L267 322.7Z" fill="#6e1315" stroke="#6e1315"></path><path d="M267 322.7L252 346L298 364Z" fill="#641315" stroke="#641315"></path><path d="M252 346L258 328.7L213 285.9Z" fill="#6e1315" stroke="#6e1315"></path><path d="M618 468.1L631 427.3L611 438.4Z" fill="#791414" stroke="#791414"></path><path d="M621 428.6L631 427.3L626 407.7Z" fill="#831512" stroke="#831512"></path><path d="M696 302.1L665 222.3L652 304Z" fill="#1e0b0b" stroke="#1e0b0b"></path><path d="M273 402.6L324 428.6L291 386.6Z" fill="#4f1215" stroke="#4f1215"></path><path d="M463 524.6L498 514.1L485 449.4Z" fill="#641315" stroke="#641315"></path><path d="M245 270.4L258 328.7L268 284.1Z" fill="#451214" stroke="#451214"></path><path d="M258 328.7L252 346L267 322.7Z" fill="#791414" stroke="#791414"></path><path d="M277 378.6L273 402.6L291 386.6Z" fill="#270f0e" stroke="#270f0e"></path><path d="M213 395.7L273 402.6L277 378.6Z" fill="#591215" stroke="#591215"></path><path d="M485 449.4L388 413.9L371 506.1Z" fill="#791414" stroke="#791414"></path><path d="M592 518.6L598 451.6L591 449.7Z" fill="#1e0b0b" stroke="#1e0b0b"></path><path d="M670 390.4L668 374.4L626 407.7Z" fill="#4f1215" stroke="#4f1215"></path><path d="M673 157.7L601 129.9L612 168.6Z" fill="#270f0e" stroke="#270f0e"></path><path d="M612 168.6L601 129.9L573 198.3Z" fill="#270f0e" stroke="#270f0e"></path><path d="M673 157.7L612 168.6L622 177.7Z" fill="#6e1315" stroke="#6e1315"></path><path d="M601 129.9L548 97.4L507 126.4Z" fill="#591215" stroke="#591215"></path><path d="M507 126.4L496 70.9L474 126.6Z" fill="#451214" stroke="#451214"></path><path d="M474 126.6L412 54.9L422 132.6Z" fill="#270f0e" stroke="#270f0e"></path><path d="M548 97.4L532 90.7L507 126.4Z" fill="#1e0b0b" stroke="#1e0b0b"></path><path d="M274 228.1L245 270.4L289 237.4Z" fill="#1e0b0b" stroke="#1e0b0b"></path><path d="M371 506.1L388 413.9L348 458.7Z" fill="#4f1215" stroke="#4f1215"></path><path d="M674 408.4L670 390.4L626 407.7Z" fill="#3b1113" stroke="#3b1113"></path><path d="M668 374.4L696 302.1L669 309.3Z" fill="#4f1215" stroke="#4f1215"></path><path d="M478 529.1L492 523.3L498 514.1Z" fill="#270f0e" stroke="#270f0e"></path><path d="M592 518.6L591 449.7L526 459.6Z" fill="#831512" stroke="#831512"></path><path d="M328 467.1L371 506.1L348 458.7Z" fill="#641315" stroke="#641315"></path><path d="M283 144.3L260 196.6L341 208Z" fill="#3b1113" stroke="#3b1113"></path><path d="M274 228.1L226 255.1L245 270.4Z" fill="#641315" stroke="#641315"></path><path d="M707 238L669 200.6L665 222.3Z" fill="#591215" stroke="#591215"></path><path d="M665 222.3L669 200.6L622 177.7Z" fill="#451214" stroke="#451214"></path><path d="M696 302.1L652 304L669 309.3Z" fill="#591215" stroke="#591215"></path><path d="M592 518.6L526 459.6L498 514.1Z" fill="#270f0e" stroke="#270f0e"></path><path d="M598 451.6L618 468.1L611 438.4Z" fill="#3b1113" stroke="#3b1113"></path><path d="M631 427.3L674 408.4L626 407.7Z" fill="#451214" stroke="#451214"></path><path d="M485 46.7L496 70.9L547 54.9Z" fill="#451214" stroke="#451214"></path><path d="M532 90.7L496 70.9L507 126.4Z" fill="#451214" stroke="#451214"></path><path d="M310 109.7L341 208L365 199.6Z" fill="#591215" stroke="#591215"></path><path d="M483 549.3L478 529.1L463 524.6Z" fill="#6e1315" stroke="#6e1315"></path><path d="M463 524.6L478 529.1L498 514.1Z" fill="#1e0b0b" stroke="#1e0b0b"></path><path d="M694 384.9L696 302.1L668 374.4Z" fill="#6e1315" stroke="#6e1315"></path><path d="M213 395.7L270 429.3L273 402.6Z" fill="#270f0e" stroke="#270f0e"></path><path d="M273 402.6L270 429.3L324 428.6Z" fill="#451214" stroke="#451214"></path><path d="M308 534.3L393 543.1L371 506.1Z" fill="#4f1215" stroke="#4f1215"></path><path d="M683 459.3L674 408.4L631 427.3Z" fill="#6e1315" stroke="#6e1315"></path><path d="M670 390.4L694 384.9L668 374.4Z" fill="#4f1215" stroke="#4f1215"></path><path d="M316 106.7L365 199.6L404 129.3Z" fill="#3b1113" stroke="#3b1113"></path><path d="M260 196.6L226 255.1L274 228.1Z" fill="#641315" stroke="#641315"></path><path d="M245 270.4L213 285.9L258 328.7Z" fill="#831512" stroke="#831512"></path><path d="M252 346L213 395.7L277 378.6Z" fill="#831512" stroke="#831512"></path><path d="M195 234.3L226 255.1L260 196.6Z" fill="#3b1113" stroke="#3b1113"></path><path d="M342 84.9L316 106.7L404 129.3Z" fill="#831512" stroke="#831512"></path><path d="M371 506.1L413 537.1L463 524.6Z" fill="#641315" stroke="#641315"></path><path d="M316 106.7L310 109.7L365 199.6Z" fill="#831512" stroke="#831512"></path><path d="M674 408.4L694 384.9L670 390.4Z" fill="#591215" stroke="#591215"></path><path d="M412 54.9L342 84.9L404 129.3Z" fill="#6e1315" stroke="#6e1315"></path><path d="M316 106.7L337 58.9L310 109.7Z" fill="#591215" stroke="#591215"></path><path d="M653 98.7L599 91.9L601 129.9Z" fill="#4f1215" stroke="#4f1215"></path><path d="M601 129.9L599 91.9L548 97.4Z" fill="#641315" stroke="#641315"></path><path d="M548 97.4L547 54.9L532 90.7Z" fill="#641315" stroke="#641315"></path><path d="M496 70.9L412 54.9L474 126.6Z" fill="#591215" stroke="#591215"></path><path d="M599 91.9L592 84.4L548 97.4Z" fill="#791414" stroke="#791414"></path><path d="M496 70.9L485 46.7L412 54.9Z" fill="#791414" stroke="#791414"></path><path d="M226 255.1L213 285.9L245 270.4Z" fill="#1e0b0b" stroke="#1e0b0b"></path><path d="M445 560.4L483 549.3L463 524.6Z" fill="#641315" stroke="#641315"></path><path d="M478 529.1L483 549.3L492 523.3Z" fill="#3b1113" stroke="#3b1113"></path><path d="M562 572.3L592 518.6L498 514.1Z" fill="#451214" stroke="#451214"></path><path d="M725 273L707 238L696 302.1Z" fill="#311011" stroke="#311011"></path><path d="M696 302.1L707 238L665 222.3Z" fill="#270f0e" stroke="#270f0e"></path><path d="M669 200.6L673 157.7L622 177.7Z" fill="#591215" stroke="#591215"></path><path d="M721 196.4L673 157.7L669 200.6Z" fill="#641315" stroke="#641315"></path><path d="M599 91.9L653 98.7L592 84.4Z" fill="#4f1215" stroke="#4f1215"></path><path d="M547 54.9L496 70.9L532 90.7Z" fill="#451214" stroke="#451214"></path><path d="M371 506.1L393 543.1L413 537.1Z" fill="#270f0e" stroke="#270f0e"></path><path d="M413 537.1L445 560.4L463 524.6Z" fill="#591215" stroke="#591215"></path><path d="M304 512.3L371 506.1L328 467.1Z" fill="#591215" stroke="#591215"></path><path d="M505 559.4L498 514.1L492 523.3Z" fill="#4f1215" stroke="#4f1215"></path><path d="M618 468.1L683 459.3L631 427.3Z" fill="#3b1113" stroke="#3b1113"></path><path d="M674 408.4L700 437.7L694 384.9Z" fill="#270f0e" stroke="#270f0e"></path><path d="M592 84.4L547 54.9L548 97.4Z" fill="#451214" stroke="#451214"></path><path d="M415 600L445 560.4L413 537.1Z" fill="#1e0b0b" stroke="#1e0b0b"></path><path d="M483 549.3L505 559.4L492 523.3Z" fill="#591215" stroke="#591215"></path><path d="M766 353L725 273L696 302.1Z" fill="#311011" stroke="#311011"></path><path d="M707 238L721 196.4L669 200.6Z" fill="#831512" stroke="#831512"></path><path d="M473 600L505 559.4L483 549.3Z" fill="#311011" stroke="#311011"></path><path d="M270 429.3L304 512.3L328 467.1Z" fill="#270f0e" stroke="#270f0e"></path><path d="M193 365.9L213 395.7L252 346Z" fill="#3b1113" stroke="#3b1113"></path><path d="M270 429.3L270 520.3L304 512.3Z" fill="#451214" stroke="#451214"></path><path d="M412 54.9L337 58.9L342 84.9Z" fill="#270f0e" stroke="#270f0e"></path><path d="M342 84.9L337 58.9L316 106.7Z" fill="#270f0e" stroke="#270f0e"></path><path d="M210 80.4L224 149.3L283 144.3Z" fill="#591215" stroke="#591215"></path><path d="M323 32.6L337 58.9L333 22.7Z" fill="#6e1315" stroke="#6e1315"></path><path d="M592 518.6L683 459.3L618 468.1Z" fill="#4f1215" stroke="#4f1215"></path><path d="M694 384.9L766 353L696 302.1Z" fill="#1e0b0b" stroke="#1e0b0b"></path><path d="M683 459.3L700 437.7L674 408.4Z" fill="#270f0e" stroke="#270f0e"></path><path d="M673 157.7L653 98.7L601 129.9Z" fill="#591215" stroke="#591215"></path><path d="M551 0L534 0L547 54.9Z" fill="#791414" stroke="#791414"></path><path d="M679 121.7L653 98.7L673 157.7Z" fill="#1e0b0b" stroke="#1e0b0b"></path><path d="M226 255.1L195 234.3L213 285.9Z" fill="#1e0b0b" stroke="#1e0b0b"></path><path d="M213 285.9L193 365.9L252 346Z" fill="#591215" stroke="#591215"></path><path d="M224 149.3L195 234.3L260 196.6Z" fill="#6e1315" stroke="#6e1315"></path><path d="M224 149.3L260 196.6L283 144.3Z" fill="#3b1113" stroke="#3b1113"></path><path d="M758 217L721 196.4L707 238Z" fill="#451214" stroke="#451214"></path><path d="M213 395.7L225 441.3L270 429.3Z" fill="#791414" stroke="#791414"></path><path d="M167 315.7L193 365.9L213 285.9Z" fill="#791414" stroke="#791414"></path><path d="M213 395.7L197 439.6L225 441.3Z" fill="#831512" stroke="#831512"></path><path d="M721 196.4L679 121.7L673 157.7Z" fill="#641315" stroke="#641315"></path><path d="M306 536.3L308 534.3L304 512.3Z" fill="#1e0b0b" stroke="#1e0b0b"></path><path d="M304 512.3L308 534.3L371 506.1Z" fill="#6e1315" stroke="#6e1315"></path><path d="M415 600L473 600L445 560.4Z" fill="#4f1215" stroke="#4f1215"></path><path d="M210 80.4L283 144.3L310 109.7Z" fill="#270f0e" stroke="#270f0e"></path><path d="M270 520.3L306 536.3L304 512.3Z" fill="#311011" stroke="#311011"></path><path d="M308 534.3L353 600L393 543.1Z" fill="#4f1215" stroke="#4f1215"></path><path d="M197 439.6L227 459.3L225 441.3Z" fill="#3b1113" stroke="#3b1113"></path><path d="M225 441.3L227 459.3L270 429.3Z" fill="#4f1215" stroke="#4f1215"></path><path d="M679 121.7L664 95.4L653 98.7Z" fill="#1e0b0b" stroke="#1e0b0b"></path><path d="M653 98.7L650 0L592 84.4Z" fill="#641315" stroke="#641315"></path><path d="M534 0L456 11.9L485 46.7Z" fill="#6e1315" stroke="#6e1315"></path><path d="M485 46.7L456 11.9L412 54.9Z" fill="#311011" stroke="#311011"></path><path d="M438 -4.3L456 11.9L534 0Z" fill="#591215" stroke="#591215"></path><path d="M456 11.9L449 9.7L412 54.9Z" fill="#831512" stroke="#831512"></path><path d="M530 600L562 572.3L505 559.4Z" fill="#6e1315" stroke="#6e1315"></path><path d="M505 559.4L562 572.3L498 514.1Z" fill="#791414" stroke="#791414"></path><path d="M729 538.1L711 471.3L683 459.3Z" fill="#1e0b0b" stroke="#1e0b0b"></path><path d="M227 459.3L270 520.3L270 429.3Z" fill="#791414" stroke="#791414"></path><path d="M562 572.3L588 567.4L592 518.6Z" fill="#791414" stroke="#791414"></path><path d="M165 268.4L167 315.7L213 285.9Z" fill="#6e1315" stroke="#6e1315"></path><path d="M193 365.9L177 380.4L213 395.7Z" fill="#4f1215" stroke="#4f1215"></path><path d="M165 268.4L213 285.9L195 234.3Z" fill="#451214" stroke="#451214"></path><path d="M165 353.9L177 380.4L193 365.9Z" fill="#591215" stroke="#591215"></path><path d="M126 237.4L165 268.4L195 234.3Z" fill="#4f1215" stroke="#4f1215"></path><path d="M415 600L413 537.1L393 543.1Z" fill="#270f0e" stroke="#270f0e"></path><path d="M445 560.4L473 600L483 549.3Z" fill="#831512" stroke="#831512"></path><path d="M562 572.3L586 600L588 567.4Z" fill="#641315" stroke="#641315"></path><path d="M333 22.7L337 58.9L372 0Z" fill="#3b1113" stroke="#3b1113"></path><path d="M337 58.9L323 32.6L310 109.7Z" fill="#3b1113" stroke="#3b1113"></path><path d="M177 380.4L197 439.6L213 395.7Z" fill="#3b1113" stroke="#3b1113"></path><path d="M199 517.1L271 546.4L270 520.3Z" fill="#1e0b0b" stroke="#1e0b0b"></path><path d="M729 538.1L683 459.3L592 518.6Z" fill="#831512" stroke="#831512"></path><path d="M683 459.3L711 471.3L700 437.7Z" fill="#831512" stroke="#831512"></path><path d="M767 357.9L766 353L694 384.9Z" fill="#311011" stroke="#311011"></path><path d="M449 9.7L417 0L412 54.9Z" fill="#591215" stroke="#591215"></path><path d="M473 600L499 600L505 559.4Z" fill="#791414" stroke="#791414"></path><path d="M167 315.7L165 353.9L193 365.9Z" fill="#3b1113" stroke="#3b1113"></path><path d="M177 380.4L153 416.6L197 439.6Z" fill="#831512" stroke="#831512"></path><path d="M177 380.4L165 353.9L140 410.9Z" fill="#6e1315" stroke="#6e1315"></path><path d="M456 11.9L438 -4.3L449 9.7Z" fill="#3b1113" stroke="#3b1113"></path><path d="M449 9.7L438 -4.3L417 0Z" fill="#4f1215" stroke="#4f1215"></path><path d="M534 0L485 46.7L547 54.9Z" fill="#1e0b0b" stroke="#1e0b0b"></path><path d="M353 600L308 534.3L344 600Z" fill="#3b1113" stroke="#3b1113"></path><path d="M364 608.3L415 600L393 543.1Z" fill="#831512" stroke="#831512"></path><path d="M374 0L337 58.9L412 54.9Z" fill="#270f0e" stroke="#270f0e"></path><path d="M787 288.9L758 217L725 273Z" fill="#791414" stroke="#791414"></path><path d="M725 273L758 217L707 238Z" fill="#791414" stroke="#791414"></path><path d="M782 113.7L752 86.9L679 121.7Z" fill="#831512" stroke="#831512"></path><path d="M752 86.9L698 42.6L664 95.4Z" fill="#311011" stroke="#311011"></path><path d="M551 0L547 54.9L592 84.4Z" fill="#791414" stroke="#791414"></path><path d="M767 357.9L694 384.9L776 416.7Z" fill="#3b1113" stroke="#3b1113"></path><path d="M409 -11.3L390 0L417 0Z" fill="#591215" stroke="#591215"></path><path d="M417 0L390 0L412 54.9Z" fill="#3b1113" stroke="#3b1113"></path><path d="M499 600L530 600L505 559.4Z" fill="#4f1215" stroke="#4f1215"></path><path d="M776 416.7L694 384.9L700 437.7Z" fill="#311011" stroke="#311011"></path><path d="M766 353L787 288.9L725 273Z" fill="#791414" stroke="#791414"></path><path d="M650 0L551 0L592 84.4Z" fill="#591215" stroke="#591215"></path><path d="M633 -36.1L409 -11.3L438 -4.3Z" fill="#591215" stroke="#591215"></path><path d="M409 -11.3L374 0L390 0Z" fill="#3b1113" stroke="#3b1113"></path><path d="M390 0L374 0L412 54.9Z" fill="#311011" stroke="#311011"></path><path d="M210 80.4L184 158.7L224 149.3Z" fill="#3b1113" stroke="#3b1113"></path><path d="M224 149.3L184 158.7L195 234.3Z" fill="#451214" stroke="#451214"></path><path d="M210 80.4L310 109.7L323 32.6Z" fill="#270f0e" stroke="#270f0e"></path><path d="M374 0L372 0L337 58.9Z" fill="#3b1113" stroke="#3b1113"></path><path d="M409 -11.3L372 0L374 0Z" fill="#591215" stroke="#591215"></path><path d="M199 517.1L270 520.3L227 459.3Z" fill="#451214" stroke="#451214"></path><path d="M270 520.3L271 546.4L306 536.3Z" fill="#270f0e" stroke="#270f0e"></path><path d="M530 600L553 600L562 572.3Z" fill="#6e1315" stroke="#6e1315"></path><path d="M729 538.1L741 477.6L711 471.3Z" fill="#1e0b0b" stroke="#1e0b0b"></path><path d="M438 -4.3L409 -11.3L417 0Z" fill="#270f0e" stroke="#270f0e"></path><path d="M633 -36.1L438 -4.3L534 0Z" fill="#6e1315" stroke="#6e1315"></path><path d="M184 158.7L168 179.1L195 234.3Z" fill="#6e1315" stroke="#6e1315"></path><path d="M344 600L308 534.3L306 536.3Z" fill="#1e0b0b" stroke="#1e0b0b"></path><path d="M409 -11.3L344 0L372 0Z" fill="#591215" stroke="#591215"></path><path d="M372 0L344 0L333 22.7Z" fill="#451214" stroke="#451214"></path><path d="M333 22.7L331 0L323 32.6Z" fill="#791414" stroke="#791414"></path><path d="M788 343.7L787 288.9L766 353Z" fill="#270f0e" stroke="#270f0e"></path><path d="M275 600L344 600L306 536.3Z" fill="#591215" stroke="#591215"></path><path d="M344 600L364 608.3L353 600Z" fill="#1e0b0b" stroke="#1e0b0b"></path><path d="M353 600L364 608.3L393 543.1Z" fill="#3b1113" stroke="#3b1113"></path><path d="M415 600L414 646.1L473 600Z" fill="#270f0e" stroke="#270f0e"></path><path d="M473 600L414 646.1L499 600Z" fill="#311011" stroke="#311011"></path><path d="M499 600L414 646.1L530 600Z" fill="#311011" stroke="#311011"></path><path d="M530 600L414 646.1L553 600Z" fill="#591215" stroke="#591215"></path><path d="M654 630.1L586 600L553 600Z" fill="#6e1315" stroke="#6e1315"></path><path d="M553 600L586 600L562 572.3Z" fill="#6e1315" stroke="#6e1315"></path><path d="M409 -11.3L331 0L344 0Z" fill="#311011" stroke="#311011"></path><path d="M344 0L331 0L333 22.7Z" fill="#591215" stroke="#591215"></path><path d="M808 369.9L788 343.7L767 357.9Z" fill="#831512" stroke="#831512"></path><path d="M767 357.9L788 343.7L766 353Z" fill="#3b1113" stroke="#3b1113"></path><path d="M621 600L592 518.6L588 567.4Z" fill="#791414" stroke="#791414"></path><path d="M711 471.3L741 477.6L700 437.7Z" fill="#4f1215" stroke="#4f1215"></path><path d="M140 410.9L153 416.6L177 380.4Z" fill="#311011" stroke="#311011"></path><path d="M197 439.6L178 474.7L227 459.3Z" fill="#270f0e" stroke="#270f0e"></path><path d="M140 410.9L165 353.9L101 381.4Z" fill="#270f0e" stroke="#270f0e"></path><path d="M165 353.9L167 315.7L119 322Z" fill="#3b1113" stroke="#3b1113"></path><path d="M741 477.6L776 416.7L700 437.7Z" fill="#791414" stroke="#791414"></path><path d="M188 56.6L210 80.4L192 15.9Z" fill="#791414" stroke="#791414"></path><path d="M184 158.7L156 160.7L168 179.1Z" fill="#791414" stroke="#791414"></path><path d="M153 416.6L178 474.7L197 439.6Z" fill="#4f1215" stroke="#4f1215"></path><path d="M792 202.4L836 200.3L820 186.3Z" fill="#311011" stroke="#311011"></path><path d="M787 288.9L787 209.3L758 217Z" fill="#591215" stroke="#591215"></path><path d="M758 217L783 173.1L721 196.4Z" fill="#4f1215" stroke="#4f1215"></path><path d="M119 112.7L156 160.7L184 158.7Z" fill="#451214" stroke="#451214"></path><path d="M168 179.1L126 237.4L195 234.3Z" fill="#3b1113" stroke="#3b1113"></path><path d="M654 630.1L621 600L586 600Z" fill="#641315" stroke="#641315"></path><path d="M586 600L621 600L588 567.4Z" fill="#6e1315" stroke="#6e1315"></path><path d="M185 506.1L190 504.4L178 474.7Z" fill="#4f1215" stroke="#4f1215"></path><path d="M178 474.7L190 504.4L227 459.3Z" fill="#270f0e" stroke="#270f0e"></path><path d="M271 546.4L275 600L306 536.3Z" fill="#591215" stroke="#591215"></path><path d="M119 322L167 315.7L165 268.4Z" fill="#791414" stroke="#791414"></path><path d="M124 440.6L164 488.6L178 474.7Z" fill="#4f1215" stroke="#4f1215"></path><path d="M792 202.4L787 209.3L836 200.3Z" fill="#311011" stroke="#311011"></path><path d="M787 209.3L783 173.1L758 217Z" fill="#4f1215" stroke="#4f1215"></path><path d="M664 95.4L650 0L653 98.7Z" fill="#311011" stroke="#311011"></path><path d="M190 504.4L199 517.1L227 459.3Z" fill="#270f0e" stroke="#270f0e"></path><path d="M156 160.7L126 237.4L168 179.1Z" fill="#641315" stroke="#641315"></path><path d="M792 202.4L783 173.1L787 209.3Z" fill="#831512" stroke="#831512"></path><path d="M94 264.3L119 322L165 268.4Z" fill="#791414" stroke="#791414"></path><path d="M164 488.6L185 506.1L178 474.7Z" fill="#591215" stroke="#591215"></path><path d="M190 504.4L185 506.1L199 517.1Z" fill="#1e0b0b" stroke="#1e0b0b"></path><path d="M752 86.9L664 95.4L679 121.7Z" fill="#791414" stroke="#791414"></path><path d="M740 37.6L698 38.6L698 42.6Z" fill="#270f0e" stroke="#270f0e"></path><path d="M698 42.6L650 0L664 95.4Z" fill="#641315" stroke="#641315"></path><path d="M275 600L414 646.1L364 608.3Z" fill="#641315" stroke="#641315"></path><path d="M364 608.3L414 646.1L415 600Z" fill="#451214" stroke="#451214"></path><path d="M275 600L364 608.3L344 600Z" fill="#791414" stroke="#791414"></path><path d="M799 407.6L808 369.9L767 357.9Z" fill="#641315" stroke="#641315"></path><path d="M788 343.7L825 351.6L787 288.9Z" fill="#591215" stroke="#591215"></path><path d="M799 407.6L767 357.9L776 416.7Z" fill="#641315" stroke="#641315"></path><path d="M656 0L650 0L698 42.6Z" fill="#4f1215" stroke="#4f1215"></path><path d="M551 0L633 -36.1L534 0Z" fill="#311011" stroke="#311011"></path><path d="M820 475.4L799 407.6L776 416.7Z" fill="#270f0e" stroke="#270f0e"></path><path d="M792 202.4L793 171.7L783 173.1Z" fill="#3b1113" stroke="#3b1113"></path><path d="M782 113.7L679 121.7L721 196.4Z" fill="#311011" stroke="#311011"></path><path d="M820 186.3L793 171.7L792 202.4Z" fill="#451214" stroke="#451214"></path><path d="M124 440.6L178 474.7L153 416.6Z" fill="#451214" stroke="#451214"></path><path d="M257 600L271 546.4L249 597.1Z" fill="#3b1113" stroke="#3b1113"></path><path d="M257 600L275 600L271 546.4Z" fill="#791414" stroke="#791414"></path><path d="M271 546.4L235 600L249 597.1Z" fill="#311011" stroke="#311011"></path><path d="M698 38.6L656 0L698 42.6Z" fill="#1e0b0b" stroke="#1e0b0b"></path><path d="M650 0L633 -36.1L551 0Z" fill="#3b1113" stroke="#3b1113"></path><path d="M90 167.7L112 235.1L126 237.4Z" fill="#3b1113" stroke="#3b1113"></path><path d="M126 237.4L94 264.3L165 268.4Z" fill="#1e0b0b" stroke="#1e0b0b"></path><path d="M695 600L729 538.1L592 518.6Z" fill="#451214" stroke="#451214"></path><path d="M741 477.6L810 487.3L776 416.7Z" fill="#791414" stroke="#791414"></path><path d="M782 113.7L721 196.4L783 173.1Z" fill="#641315" stroke="#641315"></path><path d="M701 0L633 -36.1L656 0Z" fill="#791414" stroke="#791414"></path><path d="M729 538.1L765 499.3L741 477.6Z" fill="#791414" stroke="#791414"></path><path d="M271 546.4L230 600L235 600Z" fill="#311011" stroke="#311011"></path><path d="M275 600L257 600L414 646.1Z" fill="#311011" stroke="#311011"></path><path d="M837 373.9L825 351.6L808 369.9Z" fill="#270f0e" stroke="#270f0e"></path><path d="M808 369.9L825 351.6L788 343.7Z" fill="#451214" stroke="#451214"></path><path d="M837 373.9L808 369.9L799 407.6Z" fill="#451214" stroke="#451214"></path><path d="M192 15.9L210 80.4L323 32.6Z" fill="#4f1215" stroke="#4f1215"></path><path d="M210 80.4L119 112.7L184 158.7Z" fill="#451214" stroke="#451214"></path><path d="M80 175.4L77 227.3L112 235.1Z" fill="#451214" stroke="#451214"></path><path d="M271 546.4L199 517.1L230 600Z" fill="#3b1113" stroke="#3b1113"></path><path d="M140 410.9L124 440.6L153 416.6Z" fill="#831512" stroke="#831512"></path><path d="M230 600L199 517.1L117 611.3Z" fill="#831512" stroke="#831512"></path><path d="M101 381.4L124 440.6L140 410.9Z" fill="#4f1215" stroke="#4f1215"></path><path d="M101 381.4L165 353.9L119 322Z" fill="#641315" stroke="#641315"></path><path d="M793 171.7L782 113.7L783 173.1Z" fill="#4f1215" stroke="#4f1215"></path><path d="M701 0L656 0L698 38.6Z" fill="#791414" stroke="#791414"></path><path d="M77 227.3L94 264.3L112 235.1Z" fill="#791414" stroke="#791414"></path><path d="M112 235.1L94 264.3L126 237.4Z" fill="#4f1215" stroke="#4f1215"></path><path d="M47 369L101 381.4L119 322Z" fill="#4f1215" stroke="#4f1215"></path><path d="M839 261.4L787 209.3L787 288.9Z" fill="#1e0b0b" stroke="#1e0b0b"></path><path d="M793 171.7L792 108.9L782 113.7Z" fill="#791414" stroke="#791414"></path><path d="M740 37.6L698 42.6L752 86.9Z" fill="#311011" stroke="#311011"></path><path d="M656 0L633 -36.1L650 0Z" fill="#791414" stroke="#791414"></path><path d="M858 290.3L839 261.4L787 288.9Z" fill="#1e0b0b" stroke="#1e0b0b"></path><path d="M199 517.1L185 506.1L117 611.3Z" fill="#641315" stroke="#641315"></path><path d="M249 597.1L235 600L257 600Z" fill="#311011" stroke="#311011"></path><path d="M257 600L98 643.1L414 646.1Z" fill="#591215" stroke="#591215"></path><path d="M154 34.6L170 59.9L188 56.6Z" fill="#791414" stroke="#791414"></path><path d="M188 56.6L170 59.9L210 80.4Z" fill="#1e0b0b" stroke="#1e0b0b"></path><path d="M853 153.4L792 108.9L793 171.7Z" fill="#6e1315" stroke="#6e1315"></path><path d="M782 113.7L792 108.9L752 86.9Z" fill="#270f0e" stroke="#270f0e"></path><path d="M621 600L695 600L592 518.6Z" fill="#1e0b0b" stroke="#1e0b0b"></path><path d="M791 527.6L810 487.3L765 499.3Z" fill="#791414" stroke="#791414"></path><path d="M654 630.1L695 600L621 600Z" fill="#1e0b0b" stroke="#1e0b0b"></path><path d="M767 0L740 37.6L828 50.6Z" fill="#591215" stroke="#591215"></path><path d="M96 498.6L185 506.1L164 488.6Z" fill="#1e0b0b" stroke="#1e0b0b"></path><path d="M235 600L98 643.1L257 600Z" fill="#641315" stroke="#641315"></path><path d="M849 377.7L837 373.9L799 407.6Z" fill="#311011" stroke="#311011"></path><path d="M825 351.6L858 290.3L787 288.9Z" fill="#311011" stroke="#311011"></path><path d="M723 18.7L701 0L698 38.6Z" fill="#6e1315" stroke="#6e1315"></path><path d="M414 646.1L654 630.1L553 600Z" fill="#451214" stroke="#451214"></path><path d="M740 37.6L723 18.7L698 38.6Z" fill="#791414" stroke="#791414"></path><path d="M62 297.1L81 291L94 264.3Z" fill="#270f0e" stroke="#270f0e"></path><path d="M94 264.3L81 291L119 322Z" fill="#451214" stroke="#451214"></path><path d="M67 387.9L112 453.4L124 440.6Z" fill="#270f0e" stroke="#270f0e"></path><path d="M124 440.6L112 453.4L164 488.6Z" fill="#3b1113" stroke="#3b1113"></path><path d="M67 387.9L124 440.6L101 381.4Z" fill="#641315" stroke="#641315"></path><path d="M839 261.4L836 200.3L787 209.3Z" fill="#4f1215" stroke="#4f1215"></path><path d="M820 186.3L853 153.4L793 171.7Z" fill="#591215" stroke="#591215"></path><path d="M170 59.9L119 112.7L210 80.4Z" fill="#1e0b0b" stroke="#1e0b0b"></path><path d="M331 0L192 15.9L323 32.6Z" fill="#591215" stroke="#591215"></path><path d="M170 59.9L129 75.6L119 112.7Z" fill="#3b1113" stroke="#3b1113"></path><path d="M160 0L192 15.9L331 0Z" fill="#6e1315" stroke="#6e1315"></path><path d="M90 167.7L126 237.4L156 160.7Z" fill="#4f1215" stroke="#4f1215"></path><path d="M820 475.4L849 377.7L799 407.6Z" fill="#270f0e" stroke="#270f0e"></path><path d="M837 373.9L849 377.7L825 351.6Z" fill="#641315" stroke="#641315"></path><path d="M839 261.4L900 243L836 200.3Z" fill="#270f0e" stroke="#270f0e"></path><path d="M791 527.6L765 499.3L729 538.1Z" fill="#270f0e" stroke="#270f0e"></path><path d="M765 499.3L810 487.3L741 477.6Z" fill="#591215" stroke="#591215"></path><path d="M878 346.6L858 290.3L825 351.6Z" fill="#4f1215" stroke="#4f1215"></path><path d="M119 112.7L90 167.7L156 160.7Z" fill="#311011" stroke="#311011"></path><path d="M810 487.3L820 475.4L776 416.7Z" fill="#6e1315" stroke="#6e1315"></path><path d="M728 629.1L791 527.6L729 538.1Z" fill="#451214" stroke="#451214"></path><path d="M810 487.3L872 537.4L820 475.4Z" fill="#4f1215" stroke="#4f1215"></path><path d="M22 257L62 297.1L94 264.3Z" fill="#6e1315" stroke="#6e1315"></path><path d="M81 291L62 297.1L119 322Z" fill="#791414" stroke="#791414"></path><path d="M154 34.6L129 75.6L170 59.9Z" fill="#831512" stroke="#831512"></path><path d="M62 169.6L80 175.4L90 167.7Z" fill="#6e1315" stroke="#6e1315"></path><path d="M62 169.6L90 167.7L40 122.9Z" fill="#1e0b0b" stroke="#1e0b0b"></path><path d="M90 167.7L80 175.4L112 235.1Z" fill="#791414" stroke="#791414"></path><path d="M77 227.3L22 257L94 264.3Z" fill="#3b1113" stroke="#3b1113"></path><path d="M47 369L67 387.9L101 381.4Z" fill="#831512" stroke="#831512"></path><path d="M192 15.9L154 34.6L188 56.6Z" fill="#451214" stroke="#451214"></path><path d="M47 369L59 390.4L67 387.9Z" fill="#1e0b0b" stroke="#1e0b0b"></path><path d="M67 387.9L59 390.4L112 453.4Z" fill="#791414" stroke="#791414"></path><path d="M112 453.4L96 498.6L164 488.6Z" fill="#311011" stroke="#311011"></path><path d="M836 200.3L853 153.4L820 186.3Z" fill="#4f1215" stroke="#4f1215"></path><path d="M767 0L760 0L740 37.6Z" fill="#591215" stroke="#591215"></path><path d="M740 37.6L760 0L723 18.7Z" fill="#270f0e" stroke="#270f0e"></path><path d="M900 243L853 153.4L836 200.3Z" fill="#641315" stroke="#641315"></path><path d="M900 395.6L878 346.6L849 377.7Z" fill="#641315" stroke="#641315"></path><path d="M849 377.7L878 346.6L825 351.6Z" fill="#4f1215" stroke="#4f1215"></path><path d="M858 290.3L900 254.3L839 261.4Z" fill="#791414" stroke="#791414"></path><path d="M23 411.7L96 498.6L112 453.4Z" fill="#451214" stroke="#451214"></path><path d="M740 37.6L752 86.9L824 71.9Z" fill="#451214" stroke="#451214"></path><path d="M723 18.7L760 0L701 0Z" fill="#831512" stroke="#831512"></path><path d="M701 0L760 0L633 -36.1Z" fill="#3b1113" stroke="#3b1113"></path><path d="M116 55.9L119 112.7L129 75.6Z" fill="#831512" stroke="#831512"></path><path d="M40 122.9L90 167.7L119 112.7Z" fill="#270f0e" stroke="#270f0e"></path><path d="M80 175.4L62 169.6L77 227.3Z" fill="#311011" stroke="#311011"></path><path d="M62 297.1L47 369L119 322Z" fill="#591215" stroke="#591215"></path><path d="M0 336.7L47 369L62 297.1Z" fill="#3b1113" stroke="#3b1113"></path><path d="M59 390.4L23 411.7L112 453.4Z" fill="#641315" stroke="#641315"></path><path d="M654 630.1L728 629.1L695 600Z" fill="#591215" stroke="#591215"></path><path d="M695 600L728 629.1L729 538.1Z" fill="#791414" stroke="#791414"></path><path d="M414 646.1L728 629.1L654 630.1Z" fill="#1e0b0b" stroke="#1e0b0b"></path><path d="M154 34.6L116 55.9L129 75.6Z" fill="#4f1215" stroke="#4f1215"></path><path d="M192 15.9L160 0L154 34.6Z" fill="#6e1315" stroke="#6e1315"></path><path d="M154 34.6L141 0L116 55.9Z" fill="#6e1315" stroke="#6e1315"></path><path d="M409 -11.3L160 0L331 0Z" fill="#641315" stroke="#641315"></path><path d="M141 0L160 0L409 -11.3Z" fill="#451214" stroke="#451214"></path><path d="M760 0L767 0L633 -36.1Z" fill="#1e0b0b" stroke="#1e0b0b"></path><path d="M824 71.9L752 86.9L792 108.9Z" fill="#6e1315" stroke="#6e1315"></path><path d="M853 153.4L824 71.9L792 108.9Z" fill="#451214" stroke="#451214"></path><path d="M900 327.1L900 319.7L878 346.6Z" fill="#3b1113" stroke="#3b1113"></path><path d="M878 346.6L900 319.7L858 290.3Z" fill="#641315" stroke="#641315"></path><path d="M900 319.7L900 275.9L858 290.3Z" fill="#591215" stroke="#591215"></path><path d="M900 47.6L828 50.6L824 71.9Z" fill="#270f0e" stroke="#270f0e"></path><path d="M900 395.6L900 327.1L878 346.6Z" fill="#831512" stroke="#831512"></path><path d="M900 275.9L900 254.3L858 290.3Z" fill="#791414" stroke="#791414"></path><path d="M791 527.6L823 551.1L810 487.3Z" fill="#791414" stroke="#791414"></path><path d="M900 470.1L900 395.6L849 377.7Z" fill="#591215" stroke="#591215"></path><path d="M728 629.1L823 551.1L791 527.6Z" fill="#270f0e" stroke="#270f0e"></path><path d="M633 -36.1L141 0L409 -11.3Z" fill="#791414" stroke="#791414"></path><path d="M160 0L141 0L154 34.6Z" fill="#791414" stroke="#791414"></path><path d="M36 108.9L40 122.9L119 112.7Z" fill="#451214" stroke="#451214"></path><path d="M900 254.3L900 243L839 261.4Z" fill="#791414" stroke="#791414"></path><path d="M900 115.4L824 71.9L853 153.4Z" fill="#451214" stroke="#451214"></path><path d="M824 71.9L828 50.6L740 37.6Z" fill="#270f0e" stroke="#270f0e"></path><path d="M15 200.3L22 257L77 227.3Z" fill="#451214" stroke="#451214"></path><path d="M900 254.3L906 252.1L900 243Z" fill="#1e0b0b" stroke="#1e0b0b"></path><path d="M900 243L891 137.9L853 153.4Z" fill="#311011" stroke="#311011"></path><path d="M900 275.9L906 252.1L900 254.3Z" fill="#4f1215" stroke="#4f1215"></path><path d="M920 308L906 252.1L900 275.9Z" fill="#831512" stroke="#831512"></path><path d="M920 308L900 275.9L900 319.7Z" fill="#591215" stroke="#591215"></path><path d="M900 470.1L849 377.7L820 475.4Z" fill="#270f0e" stroke="#270f0e"></path><path d="M900 327.1L920 308L900 319.7Z" fill="#1e0b0b" stroke="#1e0b0b"></path><path d="M0 388.9L23 411.7L47 369Z" fill="#311011" stroke="#311011"></path><path d="M47 369L23 411.7L59 390.4Z" fill="#451214" stroke="#451214"></path><path d="M900 395.6L920 308L900 327.1Z" fill="#641315" stroke="#641315"></path><path d="M900 125.7L891 137.9L947 212.6Z" fill="#641315" stroke="#641315"></path><path d="M891 137.9L900 243L937 220.1Z" fill="#641315" stroke="#641315"></path><path d="M36 108.9L119 112.7L116 55.9Z" fill="#791414" stroke="#791414"></path><path d="M62 169.6L15 200.3L77 227.3Z" fill="#311011" stroke="#311011"></path><path d="M0 170.4L15 200.3L62 169.6Z" fill="#270f0e" stroke="#270f0e"></path><path d="M0 280.3L0 314L62 297.1Z" fill="#1e0b0b" stroke="#1e0b0b"></path><path d="M0 280.3L62 297.1L22 257Z" fill="#1e0b0b" stroke="#1e0b0b"></path><path d="M0 266.1L0 280.3L22 257Z" fill="#451214" stroke="#451214"></path><path d="M-6 221.4L0 266.1L22 257Z" fill="#641315" stroke="#641315"></path><path d="M0 314L0 336.7L62 297.1Z" fill="#270f0e" stroke="#270f0e"></path><path d="M96 498.6L117 611.3L185 506.1Z" fill="#641315" stroke="#641315"></path><path d="M230 600L98 643.1L235 600Z" fill="#831512" stroke="#831512"></path><path d="M36 600L117 611.3L96 498.6Z" fill="#791414" stroke="#791414"></path><path d="M24 88.9L36 108.9L116 55.9Z" fill="#1e0b0b" stroke="#1e0b0b"></path><path d="M0 155.7L0 170.4L62 169.6Z" fill="#4f1215" stroke="#4f1215"></path><path d="M872 537.4L900 470.1L820 475.4Z" fill="#451214" stroke="#451214"></path><path d="M900 395.6L908 479.1L920 308Z" fill="#1e0b0b" stroke="#1e0b0b"></path><path d="M937 220.1L900 243L906 252.1Z" fill="#311011" stroke="#311011"></path><path d="M891 137.9L900 115.4L853 153.4Z" fill="#1e0b0b" stroke="#1e0b0b"></path><path d="M0 336.7L0 388.9L47 369Z" fill="#270f0e" stroke="#270f0e"></path><path d="M0 474.6L30 520.1L96 498.6Z" fill="#311011" stroke="#311011"></path><path d="M868 547.3L872 537.4L823 551.1Z" fill="#3b1113" stroke="#3b1113"></path><path d="M823 551.1L872 537.4L810 487.3Z" fill="#4f1215" stroke="#4f1215"></path><path d="M947 212.6L900 115.4L900 125.7Z" fill="#270f0e" stroke="#270f0e"></path><path d="M900 125.7L900 115.4L891 137.9Z" fill="#311011" stroke="#311011"></path><path d="M852 600L868 547.3L823 551.1Z" fill="#831512" stroke="#831512"></path><path d="M872 537.4L908 479.1L900 470.1Z" fill="#311011" stroke="#311011"></path><path d="M0 388.9L0 401.4L23 411.7Z" fill="#3b1113" stroke="#3b1113"></path><path d="M0 170.4L-6 221.4L15 200.3Z" fill="#641315" stroke="#641315"></path><path d="M15 200.3L-6 221.4L22 257Z" fill="#1e0b0b" stroke="#1e0b0b"></path><path d="M-54 226.6L-33 341.9L0 280.3Z" fill="#831512" stroke="#831512"></path><path d="M0 280.3L-33 341.9L0 314Z" fill="#451214" stroke="#451214"></path><path d="M0 314L-33 341.9L0 336.7Z" fill="#311011" stroke="#311011"></path><path d="M0 336.7L-33 341.9L0 388.9Z" fill="#6e1315" stroke="#6e1315"></path><path d="M0 388.9L-33 341.9L0 401.4Z" fill="#4f1215" stroke="#4f1215"></path><path d="M728 629.1L834 600L823 551.1Z" fill="#3b1113" stroke="#3b1113"></path><path d="M900 558.4L908 479.1L872 537.4Z" fill="#791414" stroke="#791414"></path><path d="M900 470.1L908 479.1L900 395.6Z" fill="#831512" stroke="#831512"></path><path d="M947 212.6L937 220.1L920 308Z" fill="#3b1113" stroke="#3b1113"></path><path d="M920 308L937 220.1L906 252.1Z" fill="#591215" stroke="#591215"></path><path d="M0 155.7L62 169.6L40 122.9Z" fill="#6e1315" stroke="#6e1315"></path><path d="M0 137.9L0 155.7L40 122.9Z" fill="#451214" stroke="#451214"></path><path d="M0 170.4L-39 207.1L-6 221.4Z" fill="#791414" stroke="#791414"></path><path d="M0 474.6L96 498.6L23 411.7Z" fill="#3b1113" stroke="#3b1113"></path><path d="M54 0L24 88.9L116 55.9Z" fill="#791414" stroke="#791414"></path><path d="M36 108.9L0 137.9L40 122.9Z" fill="#641315" stroke="#641315"></path><path d="M24 88.9L0 137.9L36 108.9Z" fill="#641315" stroke="#641315"></path><path d="M0 155.7L-39 207.1L0 170.4Z" fill="#641315" stroke="#641315"></path><path d="M908 479.1L947 212.6L920 308Z" fill="#791414" stroke="#791414"></path><path d="M937 220.1L947 212.6L891 137.9Z" fill="#451214" stroke="#451214"></path><path d="M868 547.3L900 558.4L872 537.4Z" fill="#4f1215" stroke="#4f1215"></path><path d="M834 600L852 600L823 551.1Z" fill="#4f1215" stroke="#4f1215"></path><path d="M728 629.1L852 600L834 600Z" fill="#311011" stroke="#311011"></path><path d="M0 401.4L0 474.6L23 411.7Z" fill="#4f1215" stroke="#4f1215"></path><path d="M-5 485.1L0 474.6L0 401.4Z" fill="#641315" stroke="#641315"></path><path d="M-54 226.6L0 266.1L-6 221.4Z" fill="#311011" stroke="#311011"></path><path d="M-54 226.6L0 280.3L0 266.1Z" fill="#270f0e" stroke="#270f0e"></path><path d="M-5 485.1L1 490.3L0 474.6Z" fill="#591215" stroke="#591215"></path><path d="M0 474.6L1 490.3L30 520.1Z" fill="#6e1315" stroke="#6e1315"></path><path d="M36 600L98 643.1L117 611.3Z" fill="#591215" stroke="#591215"></path><path d="M36 600L96 498.6L30 520.1Z" fill="#451214" stroke="#451214"></path><path d="M117 611.3L98 643.1L230 600Z" fill="#451214" stroke="#451214"></path><path d="M947 212.6L900 47.6L900 115.4Z" fill="#641315" stroke="#641315"></path><path d="M900 115.4L900 47.6L824 71.9Z" fill="#3b1113" stroke="#3b1113"></path><path d="M828 50.6L882 0L767 0Z" fill="#791414" stroke="#791414"></path><path d="M-33 341.9L-5 485.1L0 401.4Z" fill="#4f1215" stroke="#4f1215"></path><path d="M32 600L36 600L0 568.3Z" fill="#4f1215" stroke="#4f1215"></path><path d="M24 88.9L0 36.6L0 137.9Z" fill="#641315" stroke="#641315"></path><path d="M141 0L54 0L116 55.9Z" fill="#6e1315" stroke="#6e1315"></path><path d="M633 -36.1L54 0L141 0Z" fill="#591215" stroke="#591215"></path><path d="M900 574.3L900 558.4L868 547.3Z" fill="#3b1113" stroke="#3b1113"></path><path d="M908 479.1L915 600L947 212.6Z" fill="#791414" stroke="#791414"></path><path d="M-54 226.6L-39 207.1L0 36.6Z" fill="#1e0b0b" stroke="#1e0b0b"></path><path d="M0 137.9L-39 207.1L0 155.7Z" fill="#831512" stroke="#831512"></path><path d="M900 47.6L882 0L828 50.6Z" fill="#6e1315" stroke="#6e1315"></path><path d="M767 0L900 -25.1L633 -36.1Z" fill="#641315" stroke="#641315"></path><path d="M852 600L900 574.3L868 547.3Z" fill="#1e0b0b" stroke="#1e0b0b"></path><path d="M900 558.4L915 600L908 479.1Z" fill="#311011" stroke="#311011"></path><path d="M0 36.6L-39 207.1L0 137.9Z" fill="#641315" stroke="#641315"></path><path d="M-39 207.1L-54 226.6L-6 221.4Z" fill="#3b1113" stroke="#3b1113"></path><path d="M36 600L30 520.1L0 568.3Z" fill="#6e1315" stroke="#6e1315"></path><path d="M633 -36.1L34 0L54 0Z" fill="#591215" stroke="#591215"></path><path d="M54 0L0 36.6L24 88.9Z" fill="#831512" stroke="#831512"></path><path d="M0 568.3L30 520.1L-29 545.4Z" fill="#270f0e" stroke="#270f0e"></path><path d="M36 600L32 600L98 643.1Z" fill="#791414" stroke="#791414"></path><path d="M947 212.6L900 0L900 47.6Z" fill="#641315" stroke="#641315"></path><path d="M900 47.6L900 0L882 0Z" fill="#6e1315" stroke="#6e1315"></path><path d="M882 0L900 -25.1L767 0Z" fill="#831512" stroke="#831512"></path><path d="M728 629.1L900 600L852 600Z" fill="#4f1215" stroke="#4f1215"></path><path d="M852 600L900 600L900 574.3Z" fill="#270f0e" stroke="#270f0e"></path><path d="M900 574.3L915 600L900 558.4Z" fill="#311011" stroke="#311011"></path><path d="M34 0L0 36.6L54 0Z" fill="#451214" stroke="#451214"></path><path d="M-29 545.4L1 490.3L-5 485.1Z" fill="#270f0e" stroke="#270f0e"></path><path d="M-29 545.4L30 520.1L1 490.3Z" fill="#3b1113" stroke="#3b1113"></path><path d="M0 592.1L0 568.3L-29 545.4Z" fill="#831512" stroke="#831512"></path><path d="M728 629.1L915 600L900 600Z" fill="#270f0e" stroke="#270f0e"></path><path d="M900 600L915 600L900 574.3Z" fill="#4f1215" stroke="#4f1215"></path><path d="M947 212.6L900 -25.1L900 0Z" fill="#831512" stroke="#831512"></path><path d="M900 0L900 -25.1L882 0Z" fill="#831512" stroke="#831512"></path><path d="M633 -36.1L5 0L34 0Z" fill="#311011" stroke="#311011"></path><path d="M34 0L5 0L0 36.6Z" fill="#831512" stroke="#831512"></path><path d="M0 36.6L0 0L-54 226.6Z" fill="#1e0b0b" stroke="#1e0b0b"></path><path d="M-29 545.4L-5 485.1L-33 341.9Z" fill="#1e0b0b" stroke="#1e0b0b"></path><path d="M0 568.3L0 592.1L32 600Z" fill="#311011" stroke="#311011"></path><path d="M32 600L0 600L98 643.1Z" fill="#3b1113" stroke="#3b1113"></path><path d="M-54 226.6L-29 545.4L-33 341.9Z" fill="#4f1215" stroke="#4f1215"></path><path d="M633 -36.1L0 0L5 0Z" fill="#3b1113" stroke="#3b1113"></path><path d="M5 0L0 0L0 36.6Z" fill="#831512" stroke="#831512"></path><path d="M-29 545.4L0 600L0 592.1Z" fill="#591215" stroke="#591215"></path><path d="M0 592.1L0 600L32 600Z" fill="#3b1113" stroke="#3b1113"></path></g></svg>